<?xml version="1.0" encoding="UTF-8" standalone="no"?>
<svg
   xmlns:dc="http://purl.org/dc/elements/1.1/"
   xmlns:cc="http://creativecommons.org/ns#"
   xmlns:rdf="http://www.w3.org/1999/02/22-rdf-syntax-ns#"
   xmlns:svg="http://www.w3.org/2000/svg"
   xmlns="http://www.w3.org/2000/svg"
   xmlns:sodipodi="http://sodipodi.sourceforge.net/DTD/sodipodi-0.dtd"
   xmlns:inkscape="http://www.inkscape.org/namespaces/inkscape"
   width="260.60001"
   height="260.60001"
   viewBox="0 0 260.60001 260.60002"
   version="1.1"
   id="SVGRoot"
   sodipodi:docname="wmf_image_square.svg"
   inkscape:version="1.0.2 (e86c870879, 2021-01-15)">
  <defs
     id="defs118" />
  <sodipodi:namedview
     id="base"
     pagecolor="#ffffff"
     bordercolor="#666666"
     borderopacity="1.0"
     inkscape:pageopacity="0.0"
     inkscape:pageshadow="2"
     inkscape:zoom="0.35"
     inkscape:cx="155.2"
     inkscape:cy="298.8"
     inkscape:document-units="px"
     inkscape:current-layer="layer1"
     inkscape:document-rotation="0"
     showgrid="true"
     inkscape:window-width="960"
     inkscape:window-height="1016"
     inkscape:window-x="960"
     inkscape:window-y="27"
     inkscape:window-maximized="0"
     fit-margin-left="10"
     fit-margin-top="10"
     fit-margin-bottom="9.4"
     fit-margin-right="10">
    <inkscape:grid
       type="xygrid"
       id="grid127"
       originx="-244.8"
       originy="-261.20003" />
  </sodipodi:namedview>
  <metadata
     id="metadata121">
    <rdf:RDF>
      <cc:Work
         rdf:about="">
        <dc:format>image/svg+xml</dc:format>
        <dc:type
           rdf:resource="http://purl.org/dc/dcmitype/StillImage" />
        <dc:title></dc:title>
      </cc:Work>
    </rdf:RDF>
  </metadata>
  <g
     inkscape:label="Layer 1"
     inkscape:groupmode="layer"
     id="layer1"
     transform="translate(-117.4,-125.6)">
    <g
       id="g62"
       transform="translate(-59.1,113.8)">
      <path
         d="m 317.3,216 c 35.9,-5.1 63.5,-35.9 63.5,-73.3 0,-22.7 -10.2,-43 -26.3,-56.5 l -37.3,37.3 V 216 Z"
         id="path55" />
      <path
         d="M 296.4,216 V 123.5 L 259.1,86.2 c -16.1,13.6 -26.3,33.9 -26.3,56.5 0.1,37.3 27.7,68.2 63.6,73.3 z"
         id="path57" />
      <path
         d="m 371.2,78.4 c 17.2,17.2 26.6,40 26.6,64.3 0,24.3 -9.5,47.1 -26.6,64.3 -17.2,17.2 -40,26.6 -64.3,26.6 -24.3,0 -47.1,-9.5 -64.3,-26.6 -17.2,-17.1 -26.6,-40 -26.6,-64.3 0,-24.3 9.5,-47.1 26.6,-64.3 1.5,-1.5 3,-2.9 4.5,-4.2 L 226.3,53.4 c -1.5,1.4 -3,2.8 -4.5,4.3 -11,11 -19.7,23.9 -25.8,38.2 -6.3,14.8 -9.5,30.6 -9.5,46.8 0,16.2 3.2,32 9.5,46.8 6.1,14.3 14.7,27.2 25.8,38.2 11,11 23.9,19.7 38.2,25.8 14.8,6.3 30.6,9.5 46.8,9.5 16.2,0 32,-3.2 46.8,-9.5 14.3,-6.1 27.2,-14.7 38.2,-25.8 11,-11 19.7,-23.9 25.8,-38.2 6.3,-14.8 9.5,-30.6 9.5,-46.8 0,-16.2 -3.2,-32 -9.5,-46.8 -6.1,-14.3 -14.7,-27.2 -25.8,-38.2 -1.5,-1.5 -3,-2.9 -4.5,-4.3 l -20.8,20.8 c 1.7,1.3 3.2,2.7 4.7,4.2 z"
         id="path59" />
      <circle
         id="red_circle_46_"
         cx="306.89999"
         cy="59.299999"
         r="37.5" />
    </g>
  </g>
</svg>
